<svg width="106" height="53" viewBox="0 0 106 53" fill="none" xmlns="http://www.w3.org/2000/svg">
<g clip-path="url(#clip0_309_2860)">
<path fill-rule="evenodd" clip-rule="evenodd" d="M91.7338 51.7098H97.9459V24.4364H91.7338V51.7098ZM71.8192 51.1522C74.4171 51.7287 76.996 52.226 79.6394 52.226C86.8035 52.226 89.0562 48.2927 89.0562 45.1091C89.0562 38.4894 77.8227 35.5357 77.8227 31.1992C77.8227 29.986 79.0591 28.3095 82.188 28.3095C84.1601 28.3095 86.1284 28.8369 87.945 29.4887L87.3344 24.7039C85.1916 24.2518 82.9692 23.973 80.7961 23.973C74.1174 23.973 71.6144 27.2847 71.6144 30.7961C71.6144 37.2612 82.8478 40.9421 82.8478 44.8604C82.8478 47.1435 80.4244 47.8895 78.4827 47.8895C75.9796 47.8895 73.4613 47.1435 71.1631 46.1338L71.8192 51.1522ZM30.4578 49.9881L33.8218 42.1854H44.4295L47.4332 49.9881L53.7515 51.3255L53.8615 51.3406C56.1598 51.8379 58.4619 52.226 60.7905 52.226C67.9546 52.226 70.2073 48.2927 70.2073 45.1091C70.2073 38.4894 58.9739 35.5357 58.9739 31.1992C58.9739 29.986 60.2102 28.3095 63.3391 28.3095C65.3112 28.3095 67.2795 28.8369 69.0961 29.4887L68.4855 24.7039C66.3428 24.2518 64.1203 23.973 61.9472 23.973C55.2686 23.973 52.7655 27.2847 52.7655 30.7961C52.7655 37.2612 63.999 40.9421 63.999 44.8604C63.999 47.1435 61.5755 47.8895 59.6338 47.8895C57.1459 47.8895 54.6731 47.1586 52.39 46.1489L43.3941 24.4402H36.0746L25.6261 46.1489C23.4682 46.7706 21.1206 47.1435 18.2421 47.1435C11.8441 47.1435 7.2589 42.8862 7.2589 35.6751C7.2589 28.4639 11.8441 24.2367 18.2421 24.2367C21.7919 24.2367 24.295 24.7792 26.6729 25.4348L26.6274 20.5709L26.5819 20.0736C23.8285 19.5461 20.9955 19.1731 18.2459 19.1731C8.37012 19.1693 0 24.2329 0 35.6713C0 47.1096 8.37012 52.2222 18.2383 52.2222C23.9157 52.177 30.454 49.9843 30.454 49.9843L30.4578 49.9881ZM35.464 37.8527L39.5296 28.7465L43.0642 37.8527H35.4602H35.464Z" fill="white"/>
<path fill-rule="evenodd" clip-rule="evenodd" d="M91.3887 21.5617C91.218 21.5015 91.0435 21.4525 90.8881 21.3922L105.857 11.3516C105.857 11.5061 105.842 11.6606 105.842 11.8188L91.3887 21.5617ZM102.478 3.28526C102.869 3.65825 103.244 4.07645 103.574 4.51349L85.351 16.728C85.0703 16.2457 84.82 15.7635 84.6152 15.2511C84.6152 15.2511 93.2356 9.48668 102.478 3.28526ZM84.3156 14.426C84.0956 13.7252 83.9553 13.0282 83.8795 12.3124L100.009 1.49944C100.65 1.84228 101.245 2.24541 101.807 2.69752L84.3194 14.4297L84.3156 14.426ZM83.8302 11.7359C83.6443 8.03617 85.3472 4.32511 88.6808 2.08718C91.9955 -0.13569 96.1104 -0.320301 99.4895 1.24701L83.8302 11.7359ZM86.849 18.7135C86.5684 18.4196 86.2877 18.0918 86.0374 17.749L104.276 5.51943C104.496 5.89242 104.697 6.26541 104.871 6.6384L86.849 18.7135ZM88.8666 20.3599C88.6012 20.1903 88.3357 20.002 88.0854 19.8174L105.432 8.19441C105.527 8.48828 105.588 8.80098 105.652 9.10993L88.8666 20.3599Z" fill="#FCFC1B"/>
</g>
<defs>
<clipPath id="clip0_309_2860">
<rect width="105.857" height="52" fill="white" transform="translate(0 0.222229)"/>
</clipPath>
</defs>
</svg>
